# xmcd
#
# Track frame offsets:
#	150
#	3155
#	18765
#	23275
#	39825
#	41870
#	56965
#	80162
#	82462
#	103297
#	124547
#	127112
#	142600
#	163122
#	163527
#	166352
#	195987
#	215975
#	216450
#	219735
#	221732
#
# Disc length: 3223 seconds
#
# Revision: 0
# Processed by: cddbd v1.4PL0 Copyright (c) Steve Scherf et al.
# Submitted via: EasyCDDAExtractor 4.6.0.1
#
DISCID=340c9515
DTITLE=P-27 - jetzt funkt's aa
DYEAR=1993
DGENRE=Blues
TTITLE0=liebi kinder
TTITLE1=jetzt funkt's aa
TTITLE2=paris 59
TTITLE3=jazz tongue
TTITLE4=de riffer
TTITLE5=hit da road tschägg
TTITLE6=we let the whole shit flow
TTITLE7=dr drummler
TTITLE8=judgin' blind
TTITLE9=run baby run!
TTITLE10=dr zupfer
TTITLE11=eat my fruits of funk
TTITLE12=fründschaft
TTITLE13=funky stuff
TTITLE14=dr taschdr
TTITLE15=the requiem
TTITLE16=smoke this 1
TTITLE17=return of the mladen
TTITLE18=und wenn sy nid...
TTITLE19=ivo space off
TTITLE20=put your funky spacedüsn on
EXTD=Basel\nSwitzerland
EXTT0=
EXTT1=
EXTT2=
EXTT3=
EXTT4=
EXTT5=
EXTT6=
EXTT7=
EXTT8=
EXTT9=
EXTT10=
EXTT11=
EXTT12=
EXTT13=
EXTT14=
EXTT15=
EXTT16=
EXTT17=
EXTT18=
EXTT19=
EXTT20=
PLAYORDER=
